<?xml version="1.0" encoding="iso-8859-1"?>
<!-- Generator: Adobe Illustrator 18.0.0, SVG Export Plug-In . SVG Version: 6.00 Build 0)  -->
<!DOCTYPE svg PUBLIC "-//W3C//DTD SVG 1.1//EN" "http://www.w3.org/Graphics/SVG/1.1/DTD/svg11.dtd">
<svg version="1.1" id="Capa_1" xmlns="http://www.w3.org/2000/svg" xmlns:xlink="http://www.w3.org/1999/xlink" x="0px" y="0px"
	 viewBox="0 0 490 490" style="enable-background:new 0 0 490 490;" xml:space="preserve">
<g>
	<path d="M399.011,180.397h-32.89v-59.275C366.121,54.336,311.788,0,244.999,0c-66.787,0-121.12,54.336-121.12,121.122v59.275
		H90.988c-5.565,0-10.076,4.511-10.076,10.076v289.45c0,5.563,4.511,10.076,10.076,10.076h308.022
		c5.566,0,10.077-4.514,10.077-10.076v-289.45C409.088,184.908,404.577,180.397,399.011,180.397z M144.031,121.122
		c0-55.674,45.294-100.969,100.968-100.969s100.97,45.295,100.97,100.969v59.275h-33.11v-57.124
		c0-37.419-30.441-67.859-67.859-67.859c-37.417,0-67.859,30.44-67.859,67.859v57.124h-33.108V121.122z M292.706,180.397h-95.412
		v-57.124c0-26.305,21.4-47.707,47.705-47.707c26.305,0,47.707,21.402,47.707,47.707V180.397z M388.935,200.55v215.828h-287.87
		V200.55H388.935z M101.065,469.848v-33.316h287.87v33.316H101.065z"/>
	<path d="M244.999,385.818c25.785,0,46.762-20.977,46.762-46.762c0-13.115-5.574-25.634-15.129-34.434v-51.641
		c0-11.354-9.235-20.59-20.59-20.59h-21.719c-11.354,0-20.592,9.236-20.592,20.586l-0.025,51.331
		c-9.767,8.815-15.469,21.45-15.469,34.747C198.237,364.842,219.216,385.818,244.999,385.818z M229.618,317.341
		c2.66-1.889,4.24-4.946,4.242-8.209l0.027-56.149c0-0.241,0.195-0.436,0.436-0.436h21.719c0.242,0,0.438,0.194,0.438,0.436v56.389
		c0,3.224,1.543,6.256,4.148,8.152c6.876,4.997,10.98,13.048,10.98,21.533c0,14.673-11.939,26.609-26.609,26.609
		c-14.67,0-26.607-11.936-26.607-26.609C218.392,330.453,222.589,322.336,229.618,317.341z"/>
</g>
<g>
</g>
<g>
</g>
<g>
</g>
<g>
</g>
<g>
</g>
<g>
</g>
<g>
</g>
<g>
</g>
<g>
</g>
<g>
</g>
<g>
</g>
<g>
</g>
<g>
</g>
<g>
</g>
<g>
</g>
</svg>
