<?xml version="1.0" encoding="iso-8859-1"?>
<!-- Generator: Adobe Illustrator 18.1.1, SVG Export Plug-In . SVG Version: 6.00 Build 0)  -->
<svg version="1.1" id="Capa_1" xmlns="http://www.w3.org/2000/svg" xmlns:xlink="http://www.w3.org/1999/xlink" x="0px" y="0px"
	 viewBox="0 0 177.455 177.455" style="enable-background:new 0 0 177.455 177.455;" xml:space="preserve">
<g>
	<path style="fill:#010002;" d="M0,28.196C40.879,37.021,87.26,30.559,131.068,8.84c0,7.065,0,14.124,0,21.194
		C87.254,44.695,40.873,44.098,0,28.196z M154.667,43.43c0-5.913,0-11.826,0-17.751C104.313,49.653,48.314,52.273,0,33.573
		C48.314,58.198,104.295,61.486,154.667,43.43z M87.206,130.862c0-5.782,0-11.558,0-17.316c-4.726-0.901-8.216-2.554-10.466-4.714
		c-2.25-2.166-3.377-5.09-3.377-8.682c0-3.234,1.217-6.009,3.64-8.449c2.434-2.446,5.83-3.598,10.203-3.598c0-1.408,0-2.828,0-4.231
		c1.038,0.012,2.076,0.012,3.109,0c0,1.384,0,2.775,0,4.159c4.332,0.257,7.661,1.331,9.971,3.377
		c2.321,2.059,3.532,4.839,3.64,8.413c-1.903,0.143-3.807,0.269-5.716,0.364c-0.149-1.611-0.597-2.966-1.337-4.093
		c-1.366-2.088-3.562-3.127-6.564-3.204c0,5.149,0,10.317,0,15.472c5.042,1.337,8.467,2.405,10.287,3.514
		c2.936,1.82,4.392,4.612,4.392,8.521c0,5.633-1.868,9.821-5.633,12.393c-2.094,1.426-5.102,2.434-9.052,2.894
		c0,2.053,0,4.105,0,6.152c-1.038,0.012-2.076,0.012-3.109,0c0-2.053,0-4.105,0-6.152c-6.337-0.459-10.627-2.954-12.894-7.089
		c-1.235-2.226-1.856-5.161-1.856-8.825c1.921,0.161,3.849,0.292,5.77,0.394c0.173,2.918,0.644,5.06,1.414,6.42
		C80.994,129.06,83.524,130.522,87.206,130.862z M90.315,131.006c3.729-0.209,6.289-1.635,7.709-4.177
		c0.734-1.307,1.116-2.81,1.116-4.469c0-2.637-1.002-4.6-3.013-5.901c-1.152-0.77-3.091-1.456-5.812-2.148
		C90.315,119.865,90.315,125.427,90.315,131.006z M87.206,107.759c0-4.988,0-9.965,0-14.941c-2.876,0.084-4.923,0.865-6.14,2.393
		c-1.217,1.545-1.82,3.174-1.82,4.905c0,2.106,0.71,3.783,2.148,5.018C82.832,106.386,84.771,107.269,87.206,107.759z M0,39.498
		c55.742,28.402,121.706,28.402,177.455,0c0,35.932,0,71.877,0,107.815c-55.748,28.402-121.712,28.402-177.455,0
		C0,111.375,0,75.43,0,39.498z M51.339,109.25c-0.018,20.09,16.594,40.181,37.388,40.133c20.789,0.06,37.412-20.025,37.388-40.133
		c0.024-20.228-16.594-32.854-37.388-32.919C67.939,76.403,51.321,89.035,51.339,109.25z"/>
</g>
<g>
</g>
<g>
</g>
<g>
</g>
<g>
</g>
<g>
</g>
<g>
</g>
<g>
</g>
<g>
</g>
<g>
</g>
<g>
</g>
<g>
</g>
<g>
</g>
<g>
</g>
<g>
</g>
<g>
</g>
</svg>
